<?xml version="1.0" encoding="utf-8"?>
<!-- Generator: Adobe Illustrator 23.0.3, SVG Export Plug-In . SVG Version: 6.00 Build 0)  -->
<svg version="1.1" id="Layer_1" xmlns="http://www.w3.org/2000/svg" xmlns:xlink="http://www.w3.org/1999/xlink" x="0px" y="0px"
	 viewBox="0 0 180.7 180.7" style="enable-background:new 0 0 180.7 180.7;" xml:space="preserve">
<style type="text/css">
	.st0{fill:url(#SVGID_1_);}
	.st1{fill:url(#SVGID_2_);}
	.st2{fill:url(#SVGID_3_);}
	.st3{fill:url(#SVGID_4_);}
	.st4{fill:url(#SVGID_5_);}
	.st5{fill:url(#SVGID_6_);}
	.st6{fill:url(#SVGID_7_);}
	.st7{fill:url(#SVGID_8_);}
	.st8{fill:url(#SVGID_9_);}
	.st9{fill:url(#SVGID_10_);}
	.st10{fill:url(#SVGID_11_);}
	.st11{fill:url(#SVGID_12_);}
	.st12{fill:url(#SVGID_13_);}
	.st13{fill:url(#SVGID_14_);}
	.st14{fill:url(#SVGID_15_);}
	.st15{fill:url(#SVGID_16_);}
	.st16{fill:url(#SVGID_17_);}
	.st17{fill:url(#SVGID_18_);}
	.st18{fill:url(#SVGID_19_);}
	.st19{fill:url(#SVGID_20_);}
	.st20{fill:url(#SVGID_21_);}
	.st21{fill:url(#SVGID_22_);}
	.st22{fill:url(#SVGID_23_);}
	.st23{fill:url(#SVGID_24_);}
	.st24{fill:#8EC641;}
	.st25{fill:#121412;}
	.st26{fill:#2B3481;}
	.st27{fill:#27AAE2;}
	.st28{fill:#F2652F;}
	.st29{fill:#FEC611;}
	.st30{fill:#B61F26;}
	.st31{fill:#6F5197;}
	.st32{fill:#D6DF24;}
	.st33{fill:#C31A81;}
	.st34{fill:#E97915;}
	.st35{fill:#333333;}
	.st36{fill:#FBC906;}
	.st37{fill:#FBCA04;}
	.st38{fill:#E7780F;}
	.st39{fill:#EA770D;}
	.st40{fill:#FFA044;}
	.st41{fill:#E47813;}
	.st42{fill:#EB760D;}
	.st43{fill:#E10001;}
</style>
<g>
	<g>
		<g>
			<g>
				<path class="st28" d="M32.9,88.8c4.3,2.1,8.7,4,12.7,6.4c3,1.8,5.5,1.7,8.4,0c1.7-1,3.6-1.8,5.3-2.7c7.4-4.1,15.1-4.1,22.1,0.2
					c6.2,3.8,11.5,4.3,17.9,0.4c7.2-4.4,15.1-4.7,22.8-0.5c1.5,0.8,3.4,1.2,4.7,2.3c3.3,2.6,6.3,1.9,9.6-0.1
					c3.2-1.9,6.6-3.4,9.9-5.1c1.5-0.8,2.8-0.8,3.8,0.8c0.8,1.3,1.7,2.5,2.4,3.7c2.3,3.8,2,4.6-2.1,6.7c-2.6,1.4-5.3,2.8-7.9,4.3
					c-7.1,3.9-14.1,4-21.4,0.3c-9.4-4.8-9.8-6.1-20.5,0.2c-6,3.6-12.3,3.4-18.6,0.6c-2.5-1.1-4.9-2.4-7.3-3.7
					c-3.1-1.6-6.2-1.4-9.3,0.2c-0.9,0.5-1.8,0.9-2.6,1.4c-7.8,5.3-15.9,4.9-24.1,1c-3.4-1.6-6.6-3.5-9.9-5.3
					c-1.2-0.7-1.8-1.7-1.2-3.1C28.8,94,30.2,91,32.9,88.8z"/>
			</g>
			<g>
				<g>
					<path class="st28" d="M154.1,121.2c-0.4-2.6-2.1-4.4-5-4.8c-2.2-0.3-4.5-0.2-6.7-0.2c-35.1,0-70.1,0-105.2,0c-2,0-4,0-6,0.2
						c-2.2,0.2-3.6,1.6-4.3,3.6c-1.2,3.4-0.1,6.6,3.5,7.8c3,1,3.9,2.7,4.1,5.4c0.4,4.9,2.5,9.1,5.7,12.7c4.9,5.5,11.2,8.2,18.5,8.3
						c10.4,0.2,20.9,0,31.3,0.1c9.9,0,19.9,0,29.8,0c0.2,0,0.5,0,0.7,0c10.9,0.4,23.6-6,26.1-21.7c0.4-2.8,1.1-4.4,4-5.3
						C153.5,126.3,154.5,123.8,154.1,121.2z M134.6,131.4c-1.7,4.9-4.4,9-10,9.9c-2,0.3-4,0.4-5.9,0.4c-19.2,0-38.3-0.1-57.5,0.1
						c-3.9,0-7.3-1-10.5-3.2c-1.7-1.2-2.9-2.7-3.6-4.6c-1.4-3.8-0.2-5.7,3.8-5.8c13.4-0.1,26.9,0,40.3,0c0,0,0,0,0,0
						c11.7,0,23.4,0,35.1,0c2,0,4,0,6,0.1C134,128.5,135.1,129.9,134.6,131.4z"/>
				</g>
			</g>
			<g>
				<g>
					<path class="st28" d="M89.3,45.8c-0.5,0.2-1.5,0.3-2.3,0.8c-2.6,1.3-4.4,6.3-3.3,9c0.9,2.6,3.6,3.7,6,2.5
						c3.3-1.6,5-5.1,4.3-8.6C93.5,47.5,91.8,45.9,89.3,45.8z"/>
					<path class="st28" d="M70.2,54.4c-1.6-1.4-3.9-1.8-5.4-1c-2,1-3.1,3.3-2.7,5.5c0.4,2.2,1.5,4.1,3.3,5.6
						c1.5,1.2,3.1,1.5,4.8,0.8c1.5-0.6,2.1-1.9,2.4-3.5c0.1-0.5,0.1-1,0.1-1.5C72.5,57.5,71.9,55.9,70.2,54.4z"/>
					<path class="st28" d="M143.6,59.1c-5.7-12.6-15.1-21.6-27.7-26.9c-23.4-9.9-45.3-7-64.9,9.4C39.5,51.3,33.7,63.7,34.5,79
						c0.2,3.9,0.5,4.3,4.2,4.5c1.7,0.1,3.5,0,5.2,0c15.7,0,31.4,0,47.1,0c15.9,0,31.9,0,47.8,0c2,0,4,0,6-0.1
						c1.5-0.1,2.2-1.1,2.3-2.4C147.6,73.4,146.8,66,143.6,59.1z M132.2,71.3c-2,0.2-4,0.2-6,0.2c-12,0-23.9,0-35.9,0
						c-12.2,0-24.4,0-36.6,0c-1.5,0-3,0-4.5-0.1c-1.5-0.1-2.3-1.1-2-2.5c0.4-1.9,0.8-4,1.8-5.7c6.9-12.4,17-20.2,31.2-23.2
						c13-2.8,24.8-0.3,35.9,6c9,5.1,14.8,13.1,17.5,23.2C134,70.4,133.3,71.2,132.2,71.3z"/>
					<path class="st28" d="M113.2,53.6c-2.4-1.8-5.7-0.7-6.5,2.1c-0.8,2.8-0.2,5.4,1.8,7.6c1.6,1.8,3.6,2.4,5.2,1.7
						c2.1-1,3.5-3.1,3.3-5.7C116.8,57,115.2,55.1,113.2,53.6z"/>
				</g>
			</g>
		</g>
	</g>
</g>
</svg>
